<svg id="light" enable-background="new 0 0 24 24" height="512" viewBox="0 0 24 24" width="512" xmlns="http://www.w3.org/2000/svg"><path d="m19.5 19h-17c-1.379 0-2.5-1.122-2.5-2.5v-10c0-1.378 1.121-2.5 2.5-2.5h17c1.379 0 2.5 1.122 2.5 2.5v.5h.491c.827 0 1.5.673 1.5 1.5v6c0 .827-.673 1.5-1.5 1.5h-.491v.5c0 1.378-1.121 2.5-2.5 2.5zm-17-14c-.827 0-1.5.673-1.5 1.5v10c0 .827.673 1.5 1.5 1.5h17c.827 0 1.5-.673 1.5-1.5v-1c0-.276.224-.5.5-.5h.991c.275 0 .5-.224.5-.5v-6c0-.276-.225-.5-.5-.5h-.991c-.276 0-.5-.224-.5-.5v-1c0-.827-.673-1.5-1.5-1.5z"/></svg>