<svg width="478" height="478" viewBox="0 0 478 478" fill="none" xmlns="http://www.w3.org/2000/svg">
<path d="M469.087 170.122C463.625 163.992 456.161 160.005 448.029 158.873V158.856L321.019 141.311L270.758 21.2125C263.419 3.63353 243.219 -4.66747 225.641 2.67153C217.261 6.17053 210.598 12.8325 207.1 21.2125L156.839 141.311L29.8286 158.856C10.9056 161.49 -2.29941 178.967 0.334586 197.89C1.46659 206.022 5.45359 213.486 11.5836 218.948L107.277 304.281L87.6146 438.185C85.4846 451.782 91.7296 465.329 103.453 472.54C115.011 479.931 129.878 479.655 141.153 471.84L238.928 405.348L336.703 471.908C352.48 482.616 373.951 478.507 384.66 462.73C389.526 455.56 391.519 446.823 390.242 438.253L370.581 304.297L466.274 218.964C480.538 206.254 481.798 184.386 469.087 170.122ZM340.987 285.012C336.706 288.837 334.635 294.557 335.474 300.236L355.954 443.596L248.571 370.585C242.782 366.651 235.177 366.651 229.388 370.585L121.373 443.152L142.382 300.168C143.198 294.512 141.128 288.823 136.869 285.013L34.4686 192.716L171.139 173.857C177.123 173.032 182.224 169.105 184.553 163.532L239.132 34.1325C239.194 34.2085 239.24 34.2955 239.269 34.3885L293.285 163.464C295.614 169.037 300.716 172.964 306.699 173.789L443.54 193.484L340.987 285.012Z" fill="#CA3B3A"/>
</svg>
