<svg width="478" height="478" viewBox="0 0 478 478" fill="none" xmlns="http://www.w3.org/2000/svg">
<path d="M476.343 183.005C472.509 170.066 461.411 160.601 448.029 158.856L321.019 141.311L270.758 21.213C263.42 3.63395 243.22 -4.66705 225.641 2.67095C217.261 6.16995 210.598 12.832 207.1 21.212L156.839 141.31L29.8288 158.855C10.9048 161.49 -2.30018 178.966 0.33482 197.889C1.46682 206.021 5.45382 213.485 11.5838 218.947L107.277 304.28L87.6158 438.186C85.4858 451.783 91.7308 465.33 103.454 472.541C115.012 479.932 129.879 479.656 141.154 471.841L238.929 405.349L336.704 471.909C352.481 482.617 373.952 478.508 384.661 462.731C389.527 455.561 391.52 446.824 390.243 438.254L370.582 304.298L466.275 218.965C476.436 210.017 480.381 195.928 476.343 183.005Z" fill="#CA3B3A"/>
</svg>
